<?xml version="1.0" encoding="UTF-8"?>
<svg width="244px" height="77px" viewBox="0 0 244 77" version="1.1" xmlns="http://www.w3.org/2000/svg" xmlns:xlink="http://www.w3.org/1999/xlink">
    <g stroke="none" stroke-width="1" fill="none" fill-rule="evenodd">
        <g transform="translate(-993.000000, -127.000000)">
            <g transform="translate(0.000000, 3.000000)">
                <g transform="translate(953.000000, 124.000000)">
                    <g transform="translate(40.000000, 0.000000)">
                        <path d="M135.425566,0.528215587 L172.425566,8.58570688 C173.344606,8.78584618 174,9.59932642 174,10.5399058 L174,47.5175854 C174,48.6221549 173.104569,49.5175854 172,49.5175854 C171.856915,49.5175854 171.714243,49.5022305 171.574434,49.4717844 L134.574434,41.4142931 C133.655394,41.2141538 133,40.4006736 133,39.4600942 L133,2.48241455 C133,1.37784505 133.895431,0.482414553 135,0.482414553 C135.143085,0.482414553 135.285757,0.497769474 135.425566,0.528215587 Z" fill="#410506" transform="translate(153.500000, 25.000000) scale(-1, 1) translate(-153.500000, -25.000000) "></path>
                        <path d="M1.83964277,35.780595 L106.679286,27.3475478 C108.881312,27.1704221 110.809996,28.8119287 110.987122,31.0139554 C110.995704,31.1206449 111,31.2276358 111,31.3346699 L111,64.3802593 C111,66.465034 109.398777,68.2002271 107.320714,68.3673814 L2.16035723,76.8262261 C1.05934387,76.9147889 0.0950018251,76.0940356 0.00643897503,74.9930223 C0.00214805392,74.9396776 -4.37535264e-16,74.8861821 0,74.8326651 L0,37.774156 C-1.27655628e-16,36.7317687 0.800611419,35.8641722 1.83964277,35.780595 Z" fill="#70080B" transform="translate(55.500000, 52.000000) scale(-1, 1) translate(-55.500000, -52.000000) "></path>
                        <path d="M136.679286,18.6326186 L241.839643,10.1737739 C242.940656,10.0852111 243.904998,10.9059644 243.993561,12.0069777 C243.997852,12.0603224 244,12.1138179 244,12.1673349 L244,49.225844 C244,50.2682313 243.199389,51.1358278 242.160357,51.219405 L137.320714,59.6524522 C135.118688,59.8295779 133.190004,58.1880713 133.012878,55.9860446 C133.004296,55.8793551 133,55.7723642 133,55.6653301 L133,22.6197407 C133,20.534966 134.601223,18.7997729 136.679286,18.6326186 Z" fill="#70080B" transform="translate(188.500000, 35.000000) scale(-1, 1) translate(-188.500000, -35.000000) "></path>
                        <path d="M3.85372787,27.7875539 L239.853728,19.1517225 C242.061389,19.0709386 243.916541,20.7951136 243.997325,23.002775 C243.999108,23.051512 244,23.1002775 244,23.1490472 L244,56.2151215 C244,58.3673389 242.29705,60.1337438 240.146272,60.2124461 L4.14627213,68.8482775 C1.93861067,68.9290614 0.0834592011,67.2048864 0.00267533654,64.997225 C0.000891927984,64.948488 2.67050781e-15,64.8997225 0,64.8509528 L0,31.7848785 C6.24607798e-16,29.6326611 1.7029499,27.8662562 3.85372787,27.7875539 Z" fill="#BC292D"></path>
                    </g>
                </g>
            </g>
        </g>
    </g>
</svg>